<svg width="90" height="90" viewBox="0 0 90 90" fill="none" xmlns="http://www.w3.org/2000/svg">
<path d="M47.1449 10.8741C46.3871 10.8316 45.6236 10.8101 44.855 10.8101C41.3962 10.8101 38.0403 11.2461 34.8403 12.0656C35.0204 12.7216 35.1094 13.3989 35.1094 14.0977C35.1094 15.6445 34.6523 17.0859 33.75 18.4336C32.8477 19.7695 31.6055 20.9062 30.0469 21.8203C30.1523 22.2422 30.2812 22.6289 30.4336 23.0039C30.5859 23.3672 30.7148 23.6719 30.832 23.9062C30.9609 24.1523 31.125 24.4102 31.3242 24.7031C31.5234 24.9961 31.6758 25.1953 31.793 25.3242C31.8984 25.4297 32.0742 25.6289 32.3086 25.9102C32.4443 26.0653 32.5551 26.1883 32.637 26.2792C32.7034 26.353 32.7511 26.406 32.7773 26.4375C32.7891 26.4375 32.8359 26.4844 32.8945 26.5781L33 26.7188L33.0938 26.8594C33.1406 26.9414 33.1641 26.9883 33.1523 27C33.1523 27.0234 33.1523 27.082 33.1758 27.1641C33.1992 27.2461 33.1992 27.3047 33.1758 27.3516V27.3633C33.1406 27.5391 33.0586 27.668 32.9414 27.7852C32.8359 27.8906 32.6953 27.9492 32.543 27.9492H32.4727C31.8164 27.8555 31.2539 27.75 30.7617 27.6094C28.1367 26.918 25.8398 25.6758 23.8711 23.8828C23.1211 23.9766 22.3945 24.0117 21.7031 24.0117C19.659 24.0117 17.7468 23.6986 15.9664 23.0791C9.1706 30.1526 5 39.7194 5 50.2501C5 72.0322 22.8437 89.6901 44.855 89.6901C66.8663 89.6901 84.71 72.0322 84.71 50.2501C84.71 41.1704 81.6096 32.8074 76.3993 26.1412C76.0482 26.3135 75.6872 26.4786 75.3164 26.6367C72.3867 27.8906 69.1758 28.5117 65.707 28.5117C64.7227 28.5117 63.6914 28.4648 62.6133 28.3359C59.8008 30.9023 56.5195 32.6719 52.7812 33.6563C52.0781 33.8555 51.2695 34.0078 50.3438 34.1367H50.2383C50.0273 34.1367 49.8281 34.043 49.6641 33.9023C49.5 33.7383 49.3828 33.5391 49.3242 33.293V33.2695C49.2891 33.1992 49.2891 33.1289 49.3242 33C49.3594 32.8711 49.3594 32.8008 49.3594 32.7656C49.3477 32.7422 49.3828 32.6719 49.4531 32.5664L49.582 32.3672C49.582 32.3672 49.6289 32.2969 49.7227 32.168L49.76 32.1164C49.8293 32.0204 49.8666 31.9688 49.8867 31.9688C49.9105 31.942 49.9433 31.9063 49.9845 31.8613C50.1061 31.7287 50.3012 31.5159 50.5547 31.2188C50.7668 30.9701 50.9469 30.7671 51.0865 30.6097C51.1705 30.5151 51.2402 30.4366 51.293 30.375C51.457 30.1992 51.6797 29.9062 51.9609 29.4961C52.2539 29.0859 52.4883 28.7109 52.6641 28.3711C52.8281 28.0312 53.0273 27.5977 53.2383 27.082C53.4492 26.543 53.625 25.9805 53.7891 25.3945C51.5625 24.0938 49.793 22.4766 48.5039 20.5664C47.2148 18.6562 46.5703 16.5938 46.5703 14.3906C46.5703 13.1717 46.7597 12.0008 47.1449 10.8741Z" fill="#7F7F7F" fill-opacity="0.16"/>
<path d="M38.0508 67.6992C39.5625 68.414 41.1914 69.0117 42.8437 69.3281C46.1719 70.0078 48.5039 71.8359 49.8867 74.9062C51.5976 78.6445 52.6758 84.4453 53.0156 88.8632C50.4375 89.3906 47.7539 89.6718 45 89.6718C30.8555 89.6718 18.4336 82.3007 11.3672 71.2031C12.2461 70.5234 13.2656 69.9843 14.4141 69.6093C16.5117 68.9062 18.5859 68.1562 20.625 67.3007C23.2266 66.2109 23.8476 63.6445 23.168 61.0898C23.0977 60.8085 22.8281 60.539 22.582 60.3398C21.1875 59.1914 20.4375 57.7265 20.3437 55.9335C20.3086 55.2538 20.0156 54.7734 19.4648 54.3632C19.125 54.1171 18.7734 53.6835 18.6797 53.2734C18.3047 51.621 17.9648 49.9335 18.9844 48.3632C19.1192 48.1766 19.1163 47.8706 19.1139 47.6078C19.1136 47.5736 19.1133 47.5401 19.1133 47.5078C19.1172 46.9287 19.108 46.3523 19.0989 45.7772C19.0807 44.6296 19.0626 43.4873 19.1484 42.3398C19.3359 39.8906 20.0508 37.5585 22.3828 36.3046C26.3555 34.1484 30.5273 33.8671 34.6758 35.8007C37.1601 36.9492 38.4023 39.1874 38.7187 41.8007C38.8709 43.0104 38.8403 44.2349 38.8097 45.4582C38.7932 46.1192 38.7767 46.7797 38.789 47.4374C38.8064 47.6981 38.914 47.9717 39.021 48.2438C39.0583 48.3387 39.0956 48.4334 39.1289 48.5273C39.1476 48.5834 39.1928 48.6328 39.2416 48.6862C39.2846 48.7332 39.3303 48.7833 39.3633 48.8437C40.0078 49.9335 39.4219 53.5898 38.5078 54.5039C38.2148 54.7851 37.9687 55.1953 37.8984 55.5937C37.5586 57.4804 37.0898 59.2851 35.4609 60.539C35.2734 60.6796 35.1562 60.9257 35.0976 61.1601C34.3828 63.8203 35.5312 66.539 38.0508 67.6992Z" fill="#7F7F7F" fill-opacity="0.2"/>
<path d="M73.6172 72.4688C74.8476 72.7266 75.9258 73.1602 76.8398 73.7813C71.5078 80.836 63.8906 86.0625 55.1016 88.3711C54.7031 83.7774 53.6133 77.9414 51.8086 74.0157C51.5039 73.3594 51.1523 72.75 50.7539 72.1758C51.0141 72.0821 51.2747 71.9893 51.5353 71.8965C52.5778 71.5252 53.6203 71.154 54.6328 70.7227C56.8477 69.8086 57.3867 67.6055 56.8125 65.4258C56.7422 65.1797 56.5078 64.9571 56.2969 64.7813C55.1016 63.7969 54.457 62.5547 54.3867 61.0196C54.3516 60.4454 54.1172 60.0352 53.6367 59.6719C53.332 59.461 53.0273 59.1094 52.957 58.7461C52.6406 57.3399 52.3477 55.9219 53.2266 54.5625C53.3386 54.3996 53.3356 54.1481 53.3328 53.9235C53.3324 53.8897 53.332 53.8565 53.332 53.8243C53.3359 53.3318 53.3294 52.8393 53.3229 52.3473C53.3099 51.3641 53.2969 50.3826 53.3672 49.4063C53.5312 47.3086 54.1523 45.3282 56.1445 44.25C59.5547 42.4219 63.1172 42.1524 66.6562 43.8164C68.789 44.8125 69.8437 46.711 70.1133 48.9493C70.2329 49.9589 70.2094 50.9877 70.1859 52.0173C70.1725 52.6009 70.1591 53.1848 70.1719 53.7657C70.1719 53.9859 70.2637 54.2123 70.3545 54.436C70.3893 54.5217 70.4239 54.607 70.4531 54.6915C70.473 54.7511 70.5154 54.7995 70.559 54.8494C70.5926 54.8877 70.6269 54.9269 70.6523 54.9727C71.2031 55.8985 70.6992 59.0274 69.914 59.8008C69.668 60.0235 69.4687 60.3868 69.3984 60.7266C69.0937 62.3438 68.6953 63.8789 67.3008 64.9571C67.1601 65.086 67.0547 65.2969 66.9961 65.4961C66.3867 67.7696 67.3711 70.1016 69.5156 71.086C70.8281 71.6836 72.1992 72.1875 73.6172 72.4688Z" fill="#7F7F7F" fill-opacity="0.2"/>
<path fill-rule="evenodd" clip-rule="evenodd" d="M75.3164 2.20312C78.2461 3.45703 80.5781 5.15625 82.2773 7.32422C84 9.48047 84.8555 11.8242 84.832 14.4609C84.832 17.0039 83.9766 19.3477 82.2773 21.5156C80.5781 23.6836 78.2578 25.3828 75.3164 26.6367C72.3867 27.8906 69.1758 28.5117 65.707 28.5117C64.7227 28.5117 63.6914 28.4648 62.6133 28.3359C59.8008 30.9023 56.5195 32.6719 52.7812 33.6563C52.0781 33.8555 51.2695 34.0078 50.3438 34.1367H50.2383C50.0273 34.1367 49.8281 34.043 49.6641 33.9023C49.5 33.7383 49.3828 33.5391 49.3242 33.293V33.2695C49.2891 33.1992 49.2891 33.1289 49.3242 33C49.3594 32.8711 49.3594 32.8008 49.3594 32.7656C49.3477 32.7422 49.3828 32.6719 49.4531 32.5664L49.582 32.3672C49.582 32.3672 49.6289 32.2969 49.7227 32.168L49.76 32.1164C49.8293 32.0204 49.8666 31.9688 49.8867 31.9688C49.9105 31.942 49.9433 31.9063 49.9845 31.8613C50.1061 31.7287 50.3012 31.5159 50.5547 31.2188C50.7668 30.9701 50.9469 30.7671 51.0865 30.6097C51.1705 30.5151 51.2402 30.4366 51.293 30.375C51.457 30.1992 51.6797 29.9062 51.9609 29.4961C52.2539 29.0859 52.4883 28.7109 52.6641 28.3711C52.8281 28.0312 53.0273 27.5977 53.2383 27.082C53.4492 26.543 53.625 25.9805 53.7891 25.3945C51.5625 24.0938 49.793 22.4766 48.5039 20.5664C47.2148 18.6562 46.5703 16.5938 46.5703 14.3906C46.5703 11.8359 47.4023 9.49219 49.125 7.32422C50.8242 5.15625 53.168 3.45703 56.0977 2.20312C59.0273 0.949219 62.2383 0.328125 65.707 0.328125C69.1758 0.328125 72.375 0.949219 75.3164 2.20312ZM59.0156 12.8672C57.8555 12.8672 56.918 11.9297 56.918 10.7695C56.918 9.62109 57.8555 8.67188 59.0156 8.67188C60.1758 8.67188 61.1133 9.60938 61.1133 10.7695C61.1133 11.9297 60.1758 12.8672 59.0156 12.8672ZM59.0156 18.3867C57.8555 18.3867 56.918 17.4492 56.918 16.2891C56.918 15.1289 57.8555 14.1914 59.0156 14.1914C60.1758 14.1914 61.1133 15.1289 61.1133 16.2891C61.1133 17.4492 60.1758 18.3867 59.0156 18.3867ZM71.7422 17.332C72.3164 17.332 72.7852 16.8633 72.7852 16.2891C72.7852 15.7148 72.3164 15.2461 71.7422 15.2461H63.3516C62.7656 15.2461 62.2969 15.7148 62.2969 16.2891C62.2969 16.8633 62.7656 17.332 63.3516 17.332H71.7422ZM75.4688 11.8359C76.043 11.8359 76.5117 11.3789 76.5117 10.7929C76.5117 10.207 76.043 9.73825 75.457 9.74997H63.3516C62.7656 9.74997 62.2969 10.2187 62.2969 10.7929C62.2969 11.3672 62.7656 11.8359 63.3516 11.8359H75.4688Z" fill="#7F7F7F" fill-opacity="0.48"/>
<path fill-rule="evenodd" clip-rule="evenodd" d="M8.27344 14.1445C8.27344 12.3047 8.87109 10.6641 10.0781 9.14062C11.2734 7.62891 12.8672 6.42188 14.9297 5.54297C16.9922 4.66406 19.2422 4.21875 21.6797 4.21875C24.1172 4.21875 26.3672 4.66406 28.4297 5.54297C30.4922 6.42188 32.1211 7.61719 33.3164 9.14062C34.5234 10.6523 35.1094 12.3047 35.1094 14.0977C35.1094 15.6445 34.6523 17.0859 33.75 18.4336C32.8477 19.7695 31.6055 20.9062 30.0469 21.8203C30.1523 22.2422 30.2812 22.6289 30.4336 23.0039C30.5859 23.3672 30.7148 23.6719 30.832 23.9062C30.9609 24.1523 31.125 24.4102 31.3242 24.7031C31.5234 24.9961 31.6758 25.1953 31.793 25.3242C31.8984 25.4297 32.0742 25.6289 32.3086 25.9102C32.4443 26.0653 32.5551 26.1883 32.637 26.2792C32.7034 26.353 32.7511 26.406 32.7773 26.4375C32.7891 26.4375 32.8359 26.4844 32.8945 26.5781L33 26.7188L33.0938 26.8594C33.1406 26.9414 33.1641 26.9883 33.1523 27C33.1523 27.0234 33.1523 27.082 33.1758 27.1641C33.1992 27.2461 33.1992 27.3047 33.1758 27.3516V27.3633C33.1406 27.5391 33.0586 27.668 32.9414 27.7852C32.8359 27.8906 32.6953 27.9492 32.543 27.9492H32.4727C31.8164 27.8555 31.2539 27.75 30.7617 27.6094C28.1367 26.918 25.8398 25.6758 23.8711 23.8828C23.1211 23.9766 22.3945 24.0117 21.7031 24.0117C19.2656 24.0117 17.0156 23.5664 14.9531 22.6875C12.8906 21.8086 11.2617 20.6133 10.0664 19.0898C8.87109 17.5781 8.27344 15.9258 8.27344 14.1445ZM22.3477 15.4102C23.2852 13.9805 24.2813 12.5742 25.4648 11.3203C25.6499 11.1198 25.8503 10.9345 26.0558 10.7444C26.1626 10.6456 26.2707 10.5456 26.3789 10.4414C26.3711 10.4375 26.3633 10.4323 26.3555 10.4271C26.3399 10.4167 26.3242 10.4062 26.3086 10.4062H25.4297C25.418 10.4297 25.4063 10.4531 25.3828 10.4648C23.7188 11.6133 22.3242 13.043 21.0586 14.6016C20.8945 14.8008 20.7305 15 20.5781 15.2109C20.2865 15.004 20.0005 14.7989 19.7172 14.5957C19.2946 14.2927 18.8779 13.9938 18.457 13.6992C18.3469 13.8032 18.2368 13.904 18.1283 14.0033C18.029 14.0942 17.9311 14.1838 17.8359 14.2734V14.3437C17.8418 14.3496 17.8506 14.3555 17.8594 14.3613C17.8682 14.3672 17.877 14.373 17.8828 14.3789C18.3164 15.0059 18.75 15.6299 19.1836 16.2539C19.6172 16.8779 20.0508 17.502 20.4844 18.1289C20.5005 18.1504 20.5166 18.1694 20.5316 18.1871C20.5493 18.208 20.5654 18.2271 20.5781 18.2461C20.7655 17.9448 20.9495 17.6446 21.1325 17.3459C21.5332 16.6922 21.9294 16.0456 22.3477 15.4102Z" fill="#7F7F7F" fill-opacity="0.48"/>
</svg>
