<svg width="90" height="90" viewBox="0 0 90 90" fill="none" xmlns="http://www.w3.org/2000/svg">
<path d="M47.3814 10.0697C46.8321 11.3937 46.5586 12.7804 46.5586 14.2383C46.5586 16.4531 47.2031 18.5273 48.5039 20.4492C49.8047 22.3711 51.5859 24 53.8125 25.3125C53.6484 25.9102 53.4727 26.4609 53.25 27C53.0513 27.4967 52.863 27.8998 52.7047 28.2388L52.6758 28.3008C52.5 28.6406 52.2656 29.0156 51.9727 29.4375C51.6797 29.8594 51.4688 30.1406 51.3047 30.3164C51.2519 30.378 51.1826 30.4561 51.0986 30.5508C50.9589 30.7082 50.7786 30.9113 50.5664 31.1602C50.3786 31.3803 50.2231 31.5539 50.1056 31.685C50.0105 31.7912 49.9404 31.8694 49.8984 31.9219C49.8783 31.9219 49.841 31.9735 49.7718 32.0694C49.7602 32.0854 49.7478 32.1027 49.7344 32.1211C49.6406 32.25 49.5938 32.3203 49.5938 32.3203L49.4648 32.5195C49.3945 32.625 49.3594 32.6953 49.3711 32.7188C49.3711 32.7539 49.3711 32.8242 49.3359 32.9531C49.3008 33.082 49.3008 33.1523 49.3359 33.2227V33.2461C49.3945 33.4922 49.5117 33.6914 49.6758 33.8555C49.8398 33.9961 50.0391 34.0898 50.25 34.0898H50.3555C51.293 33.9609 52.1016 33.7969 52.8047 33.6094C56.5664 32.625 59.8594 30.832 62.6836 28.2656C63.7617 28.3945 64.8047 28.4414 65.8008 28.4414C69.293 28.4414 72.5156 27.8086 75.4688 26.5547C75.9675 26.3429 76.4488 26.1181 76.9126 25.8803C81.9888 32.5859 85 40.9413 85 50C85 72.0914 67.0914 90 45 90C22.9086 90 5 72.0914 5 50C5 27.9086 22.9086 10 45 10C45.7995 10 46.5935 10.0235 47.3814 10.0697Z" fill="#7F7F7F" fill-opacity="0.16"/>
<path d="M42.8203 69.4803C41.168 69.1522 39.5274 68.5662 37.9922 67.8397C35.4492 66.6678 34.3008 63.9373 35.0274 61.2654C35.0859 61.0311 35.2031 60.785 35.3906 60.6326C37.0313 59.367 37.5 57.5506 37.8399 55.6639C37.9102 55.2654 38.168 54.8553 38.4492 54.5623C39.3633 53.6483 39.9609 49.9686 39.3164 48.8787C39.2461 48.7498 39.1172 48.6678 39.082 48.5506C38.9531 48.1873 38.7539 47.8123 38.7422 47.449C38.707 45.5623 38.9063 43.6522 38.6719 41.7772C38.3438 39.1522 37.1016 36.9022 34.6055 35.742C30.4336 33.7967 26.2383 34.0897 22.2422 36.2459C19.8984 37.5115 19.1836 39.8436 18.9844 42.3162C18.8555 44.0389 18.9609 45.7733 18.9492 47.5194C18.9492 47.8123 18.9727 48.1639 18.8203 48.3865C17.7891 49.9686 18.1406 51.6678 18.5156 53.3201C18.6094 53.7303 18.9609 54.1639 19.3125 54.4217C19.875 54.8319 20.1563 55.324 20.1914 56.0037C20.2852 57.8084 21.0352 59.285 22.4414 60.4334C22.6875 60.6326 22.9688 60.9022 23.0391 61.1951C23.7188 63.7733 23.0977 66.3397 20.4844 67.4412C18.4336 68.3084 16.3477 69.0584 14.2383 69.7615C13.0898 70.1365 12.0586 70.6756 11.1797 71.367C18.293 82.5233 30.7852 89.9412 45 89.9412C47.7774 89.9412 50.4727 89.6483 53.0625 89.1326C52.7227 84.6912 51.6445 78.8553 49.9102 75.0936C48.5039 71.9998 46.1719 70.16 42.8203 69.4803Z" fill="#7F7F7F" fill-opacity="0.2"/>
<path d="M77.0039 73.9567C76.0898 73.3239 75.0117 72.8903 73.7695 72.6442C72.3515 72.3513 70.957 71.8474 69.6445 71.2614C67.4883 70.2771 66.4922 67.9333 67.1015 65.6482C67.1601 65.4489 67.2656 65.238 67.4062 65.1091C68.8125 64.031 69.2109 62.4841 69.5156 60.8669C69.5859 60.5271 69.7851 60.1638 70.0429 59.9294C70.8398 59.156 71.3437 56.0036 70.7812 55.0661C70.7226 54.9606 70.6172 54.8903 70.582 54.7731C70.4765 54.4685 70.289 54.1403 70.289 53.8356C70.2539 52.2185 70.4179 50.5778 70.2304 48.9958C69.9609 46.7458 68.8945 44.8356 66.7617 43.8278C63.1992 42.1521 59.6133 42.4216 56.1914 44.2614C54.1992 45.3396 53.5664 47.3435 53.4023 49.4411C53.2969 50.9177 53.3789 52.3942 53.3672 53.8825C53.3672 54.1286 53.3906 54.445 53.2617 54.6208C52.3828 55.9919 52.6641 57.4099 52.9922 58.8278C53.0625 59.1911 53.3672 59.5427 53.6719 59.7653C54.1523 60.1286 54.3867 60.5388 54.4336 61.113C54.5039 62.6599 55.1484 63.9021 56.3555 64.8982C56.5664 65.0739 56.8008 65.2966 56.8828 65.5427C57.457 67.7341 56.918 69.9489 54.6914 70.8747C53.4141 71.4138 52.1016 71.8591 50.7891 72.3278C51.1875 72.9021 51.5508 73.5114 51.8555 74.1794C53.6719 78.1169 54.7734 83.988 55.1719 88.6169C63.9844 86.3083 71.6367 81.0583 77.0039 73.9567Z" fill="#7F7F7F" fill-opacity="0.2"/>
<path fill-rule="evenodd" clip-rule="evenodd" d="M75.4688 1.98047C78.4219 3.23437 80.7656 4.94531 82.4766 7.125C84.1992 9.30469 85.0664 11.6602 85.0547 14.3203C85.0547 16.875 84.1875 19.2305 82.4766 21.4102C80.7656 23.5898 78.4219 25.3008 75.4688 26.5547C72.5156 27.8086 69.293 28.4414 65.8008 28.4414C64.8047 28.4414 63.7617 28.3945 62.6836 28.2656C59.8594 30.832 56.5664 32.625 52.8047 33.6094C52.1016 33.7969 51.293 33.9609 50.3555 34.0898H50.25C50.0391 34.0898 49.8398 33.9961 49.6758 33.8555C49.5117 33.6914 49.3945 33.4922 49.3359 33.2461V33.2227C49.3008 33.1523 49.3008 33.082 49.3359 32.9531C49.3711 32.8242 49.3711 32.7539 49.3711 32.7188C49.3594 32.6953 49.3945 32.625 49.4648 32.5195L49.5938 32.3203C49.5938 32.3203 49.6406 32.25 49.7344 32.1211C49.7478 32.1027 49.7602 32.0854 49.7718 32.0694C49.841 31.9735 49.8784 31.9219 49.8984 31.9219C49.9404 31.8694 50.0105 31.7912 50.1056 31.685C50.2231 31.5539 50.3786 31.3803 50.5664 31.1602C50.7786 30.9113 50.9589 30.7082 51.0986 30.5508C51.1826 30.4561 51.2519 30.378 51.3047 30.3164C51.4688 30.1406 51.6797 29.8594 51.9727 29.4375C52.2656 29.0156 52.5 28.6406 52.6758 28.3008C52.6853 28.2804 52.695 28.2597 52.7047 28.2388C52.863 27.8998 53.0513 27.4967 53.25 27C53.4727 26.4609 53.6484 25.9102 53.8125 25.3125C51.5859 24 49.8047 22.3711 48.5039 20.4492C47.2031 18.5273 46.5586 16.4531 46.5586 14.2383C46.5586 11.6602 47.4141 9.30469 49.1367 7.125C50.8477 4.94531 53.1914 3.23437 56.1445 1.98047C59.0977 0.726562 62.3203 0.09375 65.8125 0.09375C69.3047 0.09375 72.5156 0.726562 75.4688 1.98047ZM67.5117 10.7695C67.5117 9.73828 66.8438 9.12891 65.7305 9.12891C64.456 9.12891 64.1274 9.83832 63.8214 10.499C63.5534 11.0776 63.3028 11.6188 62.4492 11.6133C61.8047 11.6133 61.2422 11.2266 61.2422 10.4648C61.2422 8.58984 63.3281 6.9375 65.6016 6.9375C67.9922 6.9375 70.3359 8.07422 70.3359 10.7578C70.3359 12.4823 68.9907 13.4658 67.9739 14.2092C67.5328 14.5317 67.1535 14.809 66.9727 15.082C66.8402 15.2756 66.758 15.4918 66.6783 15.7013C66.483 16.2146 66.3031 16.6875 65.4375 16.6875C64.6524 16.6875 64.2539 16.0195 64.2539 15.4102C64.2539 14.2263 65.1465 13.5241 65.9972 12.8547C66.7718 12.2453 67.5117 11.6631 67.5117 10.7695ZM65.5195 17.9063C66.375 17.9063 67.0547 18.6094 67.0547 19.4766C67.0547 20.3438 66.375 21.0469 65.5195 21.0469C64.6641 21.0469 63.9844 20.3203 63.9844 19.4766C63.9844 18.6094 64.6641 17.9063 65.5195 17.9063Z" fill="#7F7F7F" fill-opacity="0.48"/>
</svg>
